<svg xmlns="http://www.w3.org/2000/svg" viewBox="0 0 88.41 20.02">
  <title>Synopsys logo</title>
  <g transform="translate(-95.4 -252.2)" fill="#FFBC5E">
    <path d="M102 254.9c0-.584-.292-1.023-1.583-1.023-1.294 0-1.585.438-1.585 1.023v1.583c0 .48.167.959.626 1.355l4.375 3.752c.627.521 1.002 1.167 1.002 1.834v2.376c0 1.419-1.669 2.21-4.419 2.21-3.043 0-4.503-.688-4.502-2.21v-2.062h2.752l-.001 1.979c0 .71.543 1.126 1.751 1.126 1.126 0 1.667-.416 1.667-1.126v-2.106c0-.521-.208-.918-.791-1.437l-4.045-3.522c-.75-.648-1.167-1.148-1.167-1.918v-1.813c0-1.48 1.543-2.21 4.337-2.21 3.085 0 4.334.73 4.334 2.106v1.918H102z"/>
    <path d="M131.3 265.4c0 .834.332 1.418 2.084 1.418 1.751 0 2.085-.584 2.085-1.418v-10.13c0-.832-.334-1.417-2.084-1.417-1.751 0-2.085.584-2.085 1.417zm-2.751-10.17c0-1.48 1.124-2.542 4.836-2.542 3.71 0 4.836 1.062 4.836 2.542v10.21c0 1.48-1.124 2.544-4.836 2.544-3.71 0-4.836-1.064-4.836-2.544z"/>
    <path d="M143.9 259.9c1.251 0 2.126-.167 2.126-.938v-4.064c0-.772-.875-.938-2.126-.938h-1.333v5.941zm-4.085-7.108h4.378c3.544 0 4.586.583 4.586 2.293l-.003 3.689c0 1.709-1.042 2.293-4.583 2.293h-1.626v6.774h-2.752z"/>
    <path d="M155.6 254.9c0-.584-.292-1.022-1.583-1.022-1.294 0-1.586.438-1.586 1.022v1.583c0 .48.167.959.626 1.355l4.378 3.752c.624.521.999 1.167.999 1.834v2.377c0 1.418-1.666 2.209-4.418 2.209-3.043 0-4.503-.688-4.503-2.21v-2.063h2.752v1.98c0 .71.543 1.126 1.751 1.126 1.126 0 1.667-.416 1.667-1.126v-2.106c0-.521-.207-.916-.792-1.437l-4.043-3.524c-.752-.646-1.167-1.147-1.167-1.917v-1.815c0-1.48 1.542-2.209 4.337-2.209 3.084 0 4.334.729 4.334 2.107v1.917H155.6z"/>
    <path d="M175.9 254.9c0-.584-.292-1.022-1.583-1.022-1.293 0-1.585.438-1.585 1.022v1.585c0 .478.167.958.626 1.353l4.377 3.754c.626.521.999 1.166.999 1.833v2.377c0 1.418-1.666 2.209-4.417 2.209-3.044 0-4.505-.688-4.505-2.209v-2.064h2.753l-.001 1.98c0 .71.543 1.126 1.753 1.126 1.123 0 1.666-.416 1.666-1.126v-2.106c0-.521-.208-.916-.792-1.437l-4.043-3.524c-.751-.645-1.167-1.145-1.167-1.917v-1.815c0-1.477 1.542-2.209 4.337-2.209 3.084 0 4.335.732 4.335 2.107v1.917H175.9z"/>
    <path d="M113.4 252.8h2.756l-6.03 18.89h-2.755zM109 264.6l-3.728-11.7h2.755l2.35 7.377zM166.9 252.8h2.755l-6.03 18.9h-2.755zM162.6 264.5l-3.728-11.7h2.755l2.351 7.378z"/>
    <path d="M126.9 267.9h.014v-12.75c0-1.71-1.043-2.294-4.585-2.294h-5.307l-.001 15.05h2.751l.001-.006v-13.88h2.264c1.25 0 2.125.168 2.125.938v12.94zM181.6 254.6c.259 0 .491-.018.491-.328 0-.252-.226-.296-.44-.296h-.418v.624zm-.367 1.136h-.307v-2.02h.77c.478 0 .715.175.715.573 0 .364-.229.521-.525.558l.575.889h-.342l-.535-.875h-.351zm.372.451c.792 0 1.417-.622 1.417-1.466 0-.83-.624-1.455-1.417-1.455-.805 0-1.429.626-1.429 1.455 0 .845.624 1.466 1.429 1.466m-1.782-1.466c0-1.005.816-1.747 1.782-1.747.954 0 1.768.743 1.768 1.747 0 1.016-.814 1.758-1.768 1.758-.966 0-1.782-.743-1.782-1.758"/>
  </g>
</svg>
