<svg xmlns="http://www.w3.org/2000/svg" width="2560" height="808" viewBox="0 0 2560 808" version="1.1"><path d="M 436.257 145.263 L 392.014 251.500 474.257 451.233 L 556.500 650.966 649.718 650.983 C 739.951 650.999, 742.913 650.941, 742.218 649.153 C 738.535 639.678, 481.376 39.035, 481 39.031 C 480.725 39.028, 460.591 86.832, 436.257 145.263 M 1037 199.062 C 986.815 202.133, 941.416 225.696, 914.126 262.837 L 908 271.173 908 240.087 L 908 209 842 209 L 776 209 776 429 L 776 649 843.969 649 L 911.937 649 912.266 516.250 C 912.572 392.976, 912.723 382.968, 914.380 376.054 C 923.156 339.429, 945.984 315.220, 979.699 306.785 C 987 304.958, 991.226 304.591, 1004.500 304.633 C 1018.592 304.677, 1021.473 304.979, 1028.662 307.166 C 1053.805 314.815, 1067.089 333.774, 1070.955 367.524 C 1071.610 373.238, 1071.987 425.647, 1071.992 511.750 L 1072 647 1140 647 L 1208 647 1208 506.645 C 1208 419.704, 1207.609 361.383, 1206.974 353.395 C 1202.784 300.761, 1188.042 261.964, 1162.541 236.457 C 1148.462 222.375, 1132.806 212.928, 1113.008 206.568 C 1088.644 198.742, 1070.886 196.988, 1037 199.062 M 1454.500 198.597 C 1425.860 201.481, 1411.370 204.255, 1392.386 210.491 C 1357.144 222.068, 1328.598 241.066, 1310.747 264.827 C 1298.698 280.864, 1292.119 295.819, 1288.454 315.500 C 1285.903 329.196, 1286.857 357.862, 1290.319 371.520 C 1300.276 410.816, 1326.156 436.272, 1373.500 453.343 C 1389.085 458.963, 1397.223 461.054, 1447.994 472.488 C 1474.097 478.367, 1499.065 484.313, 1503.477 485.702 C 1522.240 491.607, 1531.089 497.395, 1535.669 506.756 C 1539.382 514.346, 1539.663 525.935, 1536.311 533.220 C 1531.457 543.767, 1517.817 552.554, 1500.930 556.014 C 1470.958 562.155, 1424.896 557.610, 1383.984 544.477 C 1361.186 537.158, 1335.255 525.247, 1316.538 513.496 C 1311.684 510.448, 1307.570 508.096, 1307.397 508.270 C 1306.710 508.956, 1272 599.508, 1272 600.613 C 1272 602.629, 1290.425 613.851, 1306.327 621.520 C 1339.891 637.708, 1375.261 647.343, 1420.504 652.624 C 1439.671 654.862, 1493.865 655.185, 1510.500 653.162 C 1536.638 649.983, 1558.847 644.444, 1577.631 636.421 C 1623.436 616.856, 1651.106 584.741, 1658.452 542.615 C 1660.262 532.234, 1660.514 507.837, 1658.928 496.434 C 1653.663 458.583, 1632.482 430.051, 1595.571 411.087 C 1578.965 402.555, 1547.963 391.712, 1534 389.552 C 1523.111 387.867, 1449.714 370.490, 1442.014 367.774 C 1424.289 361.521, 1415.554 355.701, 1411.437 347.403 C 1408.505 341.495, 1408.775 327.210, 1411.940 320.691 C 1417.990 308.234, 1433.406 299.257, 1454.347 295.997 C 1464.221 294.459, 1489.876 294.705, 1502.350 296.456 C 1534.330 300.945, 1570.981 315.226, 1601.485 335.082 C 1607.330 338.887, 1612.483 342, 1612.936 342 C 1613.729 342, 1649 255.199, 1649 253.248 C 1649 250.825, 1625.287 236.393, 1606.749 227.532 C 1578.305 213.937, 1548.033 204.928, 1515.879 200.491 C 1505.053 198.997, 1463.319 197.709, 1454.500 198.597 M 2345.480 201.479 C 2262.343 210.958, 2203.053 254.693, 2191.569 315.010 C 2189.246 327.214, 2188.696 340.552, 2189.983 353.468 C 2194.416 397.952, 2213.814 425.522, 2255.025 445.908 C 2277.721 457.136, 2288.752 460.376, 2354 474.982 C 2376.275 479.968, 2398.550 485.198, 2403.500 486.604 C 2415.800 490.097, 2427.958 495.958, 2432.661 500.661 C 2439.103 507.103, 2440.500 510.996, 2440.500 522.500 C 2440.500 531.602, 2440.254 532.919, 2437.757 537.166 C 2430.179 550.056, 2411.906 558.282, 2387.451 559.810 C 2373.369 560.690, 2348.662 559.617, 2334.500 557.511 C 2295.207 551.667, 2251.992 535.871, 2219.518 515.483 C 2214.652 512.428, 2210.325 510.282, 2209.903 510.714 C 2209.481 511.147, 2201.416 531.525, 2191.982 556 C 2182.548 580.475, 2174.601 601.044, 2174.323 601.709 C 2173.039 604.780, 2205.502 622.915, 2228.875 632.183 C 2295.672 658.669, 2393.416 664.652, 2457.533 646.179 C 2508.116 631.606, 2543.178 601.822, 2556.629 562 L 2559.500 553.500 2559.496 519 L 2559.492 484.500 2556.162 475.500 C 2545.739 447.325, 2527.457 427.872, 2497 412.549 C 2475.425 401.694, 2460.512 397.177, 2400.951 383.457 C 2340.489 369.530, 2327.793 365.125, 2318.582 354.880 C 2313.266 348.967, 2311.562 343.372, 2312.230 334.026 C 2313.505 316.208, 2327.234 303.970, 2351.786 298.767 C 2363.553 296.273, 2389.239 295.851, 2404 297.909 C 2437.741 302.613, 2472.093 316.113, 2506.792 338.306 C 2511.903 341.575, 2516.246 344.081, 2516.444 343.875 C 2516.923 343.375, 2551.148 257.980, 2551.744 255.796 C 2552.547 252.854, 2525.042 235.957, 2504.211 226.595 C 2479.892 215.666, 2450.492 207.042, 2423.500 202.919 C 2405.454 200.163, 2363.773 199.393, 2345.480 201.479 M 1696.915 216.750 C 1697.952 219.363, 1735.564 312.400, 1780.498 423.500 C 1825.432 534.600, 1862.558 626.427, 1863.001 627.560 C 1863.607 629.112, 1855.127 651.564, 1828.630 718.560 L 1793.454 807.500 1858.887 807.757 C 1894.874 807.899, 1924.523 807.810, 1924.774 807.560 C 1925.243 807.090, 2166.575 216.872, 2167.577 213.743 C 2168.110 212.077, 2164.724 211.999, 2102.389 212.243 L 2036.639 212.500 1984.438 339.799 C 1955.727 409.813, 1932.064 467.270, 1931.853 467.480 C 1931.643 467.691, 1907.867 410.294, 1879.019 339.931 L 1826.567 212 1760.798 212 L 1695.029 212 1696.915 216.750" stroke="none" fill="#FFBC5E" fill-rule="evenodd"/><path d="M 265.669 18.750 C 265.294 19.375, 10.301 644.447, 8.408 649.379 C 7.837 650.866, 14.970 651, 94.800 651 L 181.813 651 184.816 643.750 C 195.124 618.863, 438.346 21.169, 438.743 19.750 C 439.207 18.093, 434.631 18, 352.676 18 C 305.069 18, 265.916 18.337, 265.669 18.750" stroke="none" fill="#FFBC5E" fill-rule="evenodd"/></svg>