<svg xmlns="http://www.w3.org/2000/svg" width="1280" height="237" viewBox="0 0 1280 237" version="1.1"><path d="" stroke="none" fill="#FFBC5E" fill-rule="evenodd"/><path d="M 1157.500 1.109 C 1148.991 2.335, 1134.605 6.570, 1127.107 10.056 C 1100.748 22.312, 1086.428 45.832, 1088.384 73.657 C 1089.514 89.740, 1093.984 100.858, 1103.274 110.690 C 1115.611 123.749, 1133.207 131.258, 1173 140.446 C 1211.961 149.441, 1222 154.984, 1222 167.500 C 1222 180.298, 1210.789 186, 1185.629 186 C 1157.499 186, 1125.988 179.055, 1104.034 168.017 C 1099.502 165.738, 1095.686 164.015, 1095.555 164.187 C 1094.896 165.055, 1079 211.384, 1079 212.437 C 1079 215.283, 1108.151 225.938, 1128 230.348 C 1149.403 235.103, 1161.797 236.399, 1186 236.411 C 1205.159 236.421, 1209.911 236.112, 1218 234.332 C 1257.153 225.714, 1278.347 203.420, 1279.776 169.348 C 1280.850 143.747, 1272.011 126.162, 1251.007 112.112 C 1238.828 103.966, 1225.655 99.125, 1194.848 91.474 C 1153.874 81.299, 1149.413 79.550, 1145.895 72.283 C 1142.238 64.729, 1145.776 56.739, 1154.467 52.926 C 1172.637 44.956, 1221.436 50.205, 1248.925 63.086 C 1253.565 65.260, 1257.692 66.693, 1258.096 66.270 C 1258.501 65.846, 1262.425 56.050, 1266.817 44.500 C 1271.209 32.950, 1275.093 22.782, 1275.449 21.905 C 1275.947 20.674, 1274.544 19.617, 1269.297 17.271 C 1252.195 9.625, 1232.789 4.414, 1210.699 1.537 C 1197.935 -0.125, 1167.750 -0.369, 1157.500 1.109 M 108.687 18.233 C 95.688 43.146, 0 230.852, 0 231.438 C 0 231.747, 14.072 232, 31.271 232 L 62.542 232 71.995 213.010 L 81.448 194.019 128.045 193.760 L 174.642 193.500 163.159 169.768 L 151.677 146.035 128.501 145.768 L 105.326 145.500 122.368 111.164 L 139.411 76.828 178.207 154.414 L 217.003 232 249.001 232 C 266.601 232, 280.978 231.662, 280.950 231.250 C 280.923 230.838, 254.888 179.650, 223.094 117.500 L 165.289 4.500 140.710 4.233 L 116.132 3.965 108.687 18.233 M 292.667 4.667 C 292.300 5.033, 292 56.333, 292 118.667 L 292 232 320 232 L 348 232 348 118 L 348 4 320.667 4 C 305.633 4, 293.033 4.300, 292.667 4.667 M 385.746 4.587 C 385.336 4.998, 385 56.333, 385 118.667 L 385 232 413 232 L 441 232 441 143 L 441 54 473.316 54 C 514.913 54, 520.206 54.951, 528.264 63.871 C 532.598 68.668, 534.147 73.797, 534.117 83.258 C 534.079 95.035, 529.002 102.959, 518.446 107.716 C 515.007 109.266, 510.288 109.559, 481.743 109.997 L 448.986 110.500 487.113 171.250 L 525.239 232 557.235 232 L 589.230 232 587.760 229.750 C 580.842 219.164, 538.703 152.390, 538.334 151.429 C 538.041 150.665, 539.133 149.922, 541.179 149.491 C 547.093 148.246, 561.183 141.095, 566.746 136.515 C 582.381 123.643, 590 105.490, 590 81.108 C 590 62.904, 586.368 50.034, 577.586 37.123 C 566.741 21.178, 549.761 10.982, 526.231 6.283 C 519.888 5.016, 506.647 4.658, 452.496 4.290 C 416.194 4.043, 386.156 4.177, 385.746 4.587 M 616 118 L 616 232 688.869 232 C 767.932 232, 770.928 231.828, 786.162 226.411 C 807.651 218.771, 823.343 202.032, 827.527 182.287 C 830.624 167.673, 828.468 151.330, 821.775 138.686 C 817.487 130.586, 807.670 120.929, 800.056 117.322 C 796.780 115.770, 794.078 114.199, 794.050 113.832 C 794.023 113.464, 795.501 112.235, 797.337 111.101 C 802.341 108.008, 810.469 98.982, 813.325 93.346 C 817.205 85.689, 819 77.246, 819 66.655 C 819 54.589, 817.720 48.429, 813.253 39 C 806.128 23.959, 790.434 12.111, 771.500 7.477 C 759.638 4.574, 746.752 4.089, 680.250 4.044 L 616 4 616 118 M 852.262 77.250 C 852.614 147.120, 852.727 150.915, 854.707 159.500 C 860.039 182.605, 868.312 198.446, 881.633 211.053 C 898.975 227.465, 920.365 235.488, 950 236.694 C 973.071 237.632, 991.203 234.349, 1008.500 226.101 C 1034.468 213.718, 1050.931 191.366, 1057.447 159.646 C 1060.414 145.203, 1061.078 126.380, 1060.787 65 L 1060.500 4.500 1032 4.500 L 1003.500 4.500 1002.970 76 C 1002.390 154.241, 1002.648 150.856, 996.327 163.338 C 988.515 178.764, 968.992 187.149, 947.846 184.158 C 928.687 181.449, 916.506 170.311, 911.321 150.760 C 909.870 145.286, 909.611 135.679, 909.264 74.250 L 908.867 4 880.380 4 L 851.893 4 852.262 77.250 M 672 73.063 L 672 93.126 711.250 92.813 L 750.500 92.500 755.163 89.759 C 760.872 86.403, 763.887 81.750, 764.677 75.076 C 765.802 65.584, 759.998 56.482, 751.277 54.060 C 748.950 53.414, 733.006 53.009, 709.750 53.006 L 672 53 672 73.063 M 672 161.052 L 672 184.104 712.750 183.802 C 752.299 183.509, 753.618 183.436, 757.500 181.342 C 765.813 176.856, 770.090 169.945, 770.133 160.931 C 770.169 153.578, 767.361 147.276, 762.348 143.452 C 755.564 138.278, 752.942 138, 710.841 138 L 672 138 672 161.052" stroke="none" fill="#FFBC5E" fill-rule="evenodd"/></svg>