<svg xmlns="http://www.w3.org/2000/svg" width="1489" height="856" viewBox="0 0 1489 856" version="1.1"><path d="M 615.384 598.860 C 608.901 601.888, 603.992 609.885, 604.006 617.399 C 604.030 631.165, 616.214 641.061, 629.483 638.091 C 640.949 635.525, 646.511 628.045, 645.836 616.097 C 645.398 608.350, 643.034 603.932, 637.180 599.921 C 632.358 596.617, 621.337 596.081, 615.384 598.860 M 839.500 598.659 C 835.038 601.007, 830.929 605.090, 829.377 608.718 C 826.511 615.417, 828.224 627.273, 832.788 632.320 C 838.165 638.266, 850.831 640.246, 860.317 636.623 L 865 634.835 865 624.417 L 865 614 857 614 L 849 614 849 617.500 C 849 620.917, 849.095 621, 853 621 L 857 621 857 625.433 C 857 630.479, 855.977 631.167, 848.471 631.167 C 840.061 631.167, 835.335 625.269, 836.236 615.896 C 837.159 606.291, 846.438 601.267, 855.401 605.520 C 859.028 607.241, 859.124 607.232, 861.543 604.960 C 862.894 603.690, 864 602.258, 864 601.777 C 864 601.296, 862.087 600.034, 859.750 598.973 C 854.419 596.553, 843.814 596.389, 839.500 598.659 M 899.367 598.918 C 895.013 601.573, 893 604.806, 893 609.146 C 893 614.201, 896.481 618.069, 903.139 620.411 C 906.088 621.448, 909.063 622.735, 909.750 623.271 C 911.338 624.508, 911.367 628.233, 909.800 629.800 C 908.074 631.526, 901.841 631.277, 899.122 629.373 C 896.910 627.824, 896.673 627.874, 894.150 630.432 L 891.500 633.117 893.845 635.046 C 899.496 639.693, 909.670 639.832, 915.016 635.333 C 921.877 629.560, 920.564 619.322, 912.500 615.707 C 903.733 611.778, 901.511 610.432, 901.212 608.871 C 900.433 604.802, 907.514 602.448, 911.559 605.432 C 913.304 606.719, 913.778 606.599, 916.250 604.245 C 917.763 602.804, 919 601.311, 919 600.927 C 919 600.542, 917.469 599.502, 915.599 598.614 C 910.932 596.399, 903.262 596.543, 899.367 598.918 M 937.168 599.092 C 929.187 603.141, 925.004 612.887, 927.040 622.691 C 929.826 636.110, 944.874 642.566, 958 635.971 C 964.807 632.551, 968.348 626.229, 968.343 617.500 C 968.339 609.827, 965.453 603.990, 959.820 600.262 C 954.031 596.431, 943.487 595.886, 937.168 599.092 M 1113.168 599.146 C 1100.588 605.373, 1098.914 625.731, 1110.271 634.393 C 1118.291 640.511, 1132.876 639.481, 1139.129 632.356 C 1146.418 624.052, 1146.013 608.745, 1138.320 601.788 C 1132.684 596.692, 1120.675 595.430, 1113.168 599.146 M 1205.367 598.918 C 1200.972 601.598, 1199 604.814, 1199 609.299 C 1199 614.171, 1202.507 617.911, 1209.500 620.496 C 1215.903 622.863, 1217 623.741, 1217 626.500 C 1217 631.176, 1210.448 632.834, 1205.300 629.461 C 1202.842 627.851, 1202.661 627.885, 1200.127 630.455 L 1197.500 633.117 1199.845 635.046 C 1205.496 639.693, 1215.670 639.832, 1221.016 635.333 C 1227.877 629.560, 1226.564 619.322, 1218.500 615.707 C 1206.751 610.441, 1205.234 608.909, 1208.521 605.621 C 1210.574 603.569, 1214.896 603.538, 1217.777 605.556 C 1219.866 607.020, 1220.146 606.945, 1222.468 604.306 C 1223.826 602.763, 1224.951 601.214, 1224.968 600.864 C 1224.986 600.514, 1223.469 599.502, 1221.599 598.614 C 1216.932 596.399, 1209.262 596.543, 1205.367 598.918 M 493.229 617.750 L 493.500 637.500 497.250 637.810 L 501 638.121 501 618.060 L 501 598 496.979 598 L 492.958 598 493.229 617.750 M 512 618 L 512 638 515.973 638 L 519.947 638 520.223 623.635 L 520.500 609.269 529.510 623.385 L 538.519 637.500 543.260 637.805 L 548 638.110 548 618.055 L 548 598 544.028 598 L 540.056 598 539.778 611.357 L 539.500 624.713 531 611.403 L 522.500 598.094 517.250 598.047 L 512 598 512 618 M 559.229 617.750 L 559.500 637.500 563.223 637.809 L 566.946 638.118 567.223 623.683 L 567.500 609.249 576.538 623.375 L 585.576 637.500 590.288 637.805 L 595 638.110 595 618.055 L 595 598 591 598 L 587 598 587 611.666 L 587 625.331 578.250 611.701 L 569.500 598.071 564.229 598.035 L 558.958 598 559.229 617.750 M 655.163 613.198 C 658.473 621.614, 661.941 630.525, 662.871 633 C 664.421 637.122, 664.849 637.500, 667.971 637.500 L 671.380 637.500 679.190 618.035 C 683.485 607.329, 687 598.415, 687 598.227 C 687 598.039, 685.117 598.023, 682.816 598.193 L 678.633 598.500 673.600 612.201 C 670.833 619.736, 668.428 625.761, 668.257 625.590 C 668.086 625.419, 665.771 619.254, 663.113 611.889 L 658.280 598.500 653.713 598.198 L 649.146 597.896 655.163 613.198 M 702.165 599.750 C 700.609 602.759, 686 636.798, 686 637.415 C 686 637.737, 687.816 638, 690.036 638 C 693.866 638, 694.169 637.771, 696 633.500 L 697.929 629 706.258 629 L 714.587 629 716.131 633.250 C 717.575 637.228, 717.941 637.520, 721.837 637.807 C 724.290 637.989, 726 637.681, 726 637.058 C 726 636.476, 722.318 627.450, 717.818 617 L 709.636 598 706.353 598 C 704.238 598, 702.748 598.622, 702.165 599.750 M 725.187 601.250 C 725.496 604.461, 725.568 604.504, 731.225 604.799 L 736.951 605.098 737.225 621.299 L 737.500 637.500 741.250 637.810 L 745 638.121 745 621.560 L 745 605 751 605 L 757 605 757 601.500 L 757 598 740.937 598 L 724.873 598 725.187 601.250 M 764 618.060 L 764 638.121 767.750 637.810 L 771.500 637.500 771.771 617.750 L 772.042 598 768.021 598 L 764 598 764 618.060 M 783 618 L 783 638 786.473 638 L 789.947 638 790.223 623.250 L 790.500 608.500 799.973 623.296 L 809.445 638.091 813.973 637.796 L 818.500 637.500 818.771 617.750 L 819.042 598 815.049 598 L 811.056 598 810.778 611.719 L 810.500 625.437 801.657 611.719 L 792.813 598 787.907 598 L 783 598 783 618 M 978 618 L 978 638 990 638 L 1002 638 1002 634.500 L 1002 631 993.500 631 L 985 631 985 614.500 L 985 598 981.500 598 L 978 598 978 618 M 1008.180 613.431 C 1008.467 627.268, 1008.717 629.152, 1010.605 631.681 C 1017.701 641.187, 1033.661 640.557, 1038.394 630.583 C 1039.641 627.955, 1040 623.934, 1040 612.599 L 1040 598 1036.500 598 L 1033 598 1033 610.351 C 1033 623.382, 1031.967 628.412, 1028.961 630.021 C 1025.656 631.789, 1021.052 631.143, 1018.455 628.545 C 1016.081 626.172, 1016 625.625, 1016 612.045 L 1016 598 1011.930 598 L 1007.859 598 1008.180 613.431 M 1047 601.500 L 1047 605 1053 605 L 1059 605 1059 621.500 L 1059 638 1063 638 L 1067 638 1067 621.500 L 1067 605 1073 605 L 1079 605 1079 601.500 L 1079 598 1063 598 L 1047 598 1047 601.500 M 1086 618.060 L 1086 638.121 1089.750 637.810 L 1093.500 637.500 1093.771 617.750 L 1094.042 598 1090.021 598 L 1086 598 1086 618.060 M 1154 618 L 1154 638 1157.473 638 L 1160.947 638 1161.223 623.320 L 1161.500 608.641 1170.885 623.370 L 1180.270 638.099 1184.885 637.799 L 1189.500 637.500 1189.771 617.750 L 1190.042 598 1186.021 598 L 1182 598 1182 612.168 L 1182 626.336 1172.828 612.168 L 1163.657 598 1158.828 598 L 1154 598 1154 618 M 618 606.197 C 611.091 610.887, 610.360 621.560, 616.526 627.726 C 619.286 630.486, 620.530 631, 624.450 631 C 627.007 631, 630.366 630.345, 631.915 629.544 C 638.713 626.029, 640.037 613.576, 634.231 607.769 C 629.960 603.499, 622.973 602.822, 618 606.197 M 940.873 605.684 C 937.005 608.084, 935 612.175, 935.004 617.654 C 935.008 622.995, 937.516 628.135, 941.036 630.020 C 942.215 630.650, 945.124 631.167, 947.500 631.167 C 952.875 631.167, 955.558 629.773, 958.050 625.686 C 960.469 621.719, 960.627 613.869, 958.364 610.040 C 954.987 604.322, 946.481 602.203, 940.873 605.684 M 1116.873 605.684 C 1113.005 608.084, 1111 612.175, 1111.004 617.654 C 1111.008 622.995, 1113.516 628.135, 1117.036 630.020 C 1120.135 631.678, 1127.698 631.428, 1130.528 629.574 C 1135.591 626.256, 1137.697 617.511, 1135 611.001 C 1132.459 604.865, 1122.771 602.023, 1116.873 605.684 M 703.538 614.250 C 702.517 617.138, 701.480 620.063, 701.234 620.750 C 700.913 621.645, 702.235 622, 705.893 622 C 708.702 622, 711 621.709, 711 621.353 C 711 619.830, 706.672 609, 706.064 609 C 705.696 609, 704.560 611.362, 703.538 614.250" stroke="none" fill="#FFBC5E" fill-rule="evenodd"/><path d="M 564.500 217.555 C 523.986 224.401, 489.418 248.249, 475.744 278.788 L 473.634 283.500 472.306 277 C 464.968 241.102, 445.828 224.014, 406.308 218.080 C 394.450 216.299, 369.774 216.730, 356.849 218.944 C 303.926 228.009, 259.189 264.392, 231.979 320.500 C 214.830 355.860, 207.606 387.399, 210.965 412.232 C 215.405 445.057, 233.583 472.070, 261.289 487.014 C 277.102 495.544, 292.426 499.002, 314.381 498.996 C 341.766 498.988, 364.991 492.868, 383.783 480.707 C 391.385 475.788, 399.891 467.872, 402.912 462.904 L 404.946 459.560 404.341 463.530 C 402.977 472.492, 397.929 490.449, 394.046 500.153 C 372.682 553.542, 329.185 577.802, 273.574 567.346 C 251.780 563.249, 227.421 551.969, 210.121 537.964 C 205.924 534.567, 203.499 533.192, 203.034 533.945 C 202.645 534.575, 200.169 544.281, 197.533 555.515 C 191.678 580.463, 191.573 587.216, 196.863 598.521 C 201.085 607.543, 213.247 619.654, 224.403 625.945 C 234.476 631.624, 251.712 637.481, 264.500 639.568 C 279.497 642.016, 308.156 641.046, 325 637.520 C 348.097 632.686, 371.150 623.688, 390.715 611.870 C 420.654 593.786, 447.064 565.660, 458.005 540.208 C 469.257 514.036, 485.856 457.618, 505.142 380 C 517.477 330.354, 521.337 321.434, 537.416 305.420 C 544.380 298.485, 548.300 295.471, 554.016 292.657 C 575.915 281.880, 601.419 284.662, 614.545 299.261 C 622.338 307.930, 625.655 322.476, 623.950 340.506 C 622.910 351.491, 624.335 345.036, 605.743 423 L 590.601 486.500 590.550 499.101 C 590.501 511.574, 590.535 511.771, 594 518.550 C 598.135 526.641, 604.935 532.710, 613.424 535.886 C 620.608 538.573, 634.764 540.206, 647.462 539.810 L 657.424 539.500 680.104 443.500 C 692.577 390.700, 703.782 344.350, 705.004 340.500 C 710.126 324.351, 721.307 307.363, 732.252 299.100 C 742.585 291.298, 757.541 286.048, 769.500 286.025 C 803.946 285.957, 818.914 308.372, 811.887 349.500 C 811.324 352.800, 803.844 384.975, 795.267 421 C 780.248 484.077, 779.668 486.907, 779.586 497.500 C 779.485 510.386, 781.017 515.913, 786.754 523.368 C 794.361 533.253, 807.432 538.346, 828.411 539.601 L 839.821 540.283 840.407 534.891 C 840.729 531.926, 841.473 524.100, 842.060 517.500 C 844.763 487.122, 850.708 450.513, 856.589 428.030 C 868.550 382.311, 883.792 367.319, 901.827 383.534 C 913.115 393.683, 919.818 404.674, 946.020 456 C 981.947 526.378, 990.954 539, 1005.246 539 C 1009.511 539, 1015.501 536.076, 1018.484 532.537 C 1019.043 531.874, 1052.366 487.495, 1092.536 433.916 C 1192.719 300.291, 1225.519 257.696, 1239.426 243.159 L 1245.493 236.817 1242.996 234.796 C 1238.790 231.389, 1227.494 226.135, 1219.291 223.771 C 1207.893 220.485, 1187.639 220.519, 1177 223.843 C 1163.958 227.917, 1154.388 233.569, 1145.447 242.477 C 1136.560 251.331, 1134.100 254.693, 1098.983 306 C 1050.536 376.781, 1029.192 404.953, 1016.217 415.239 C 1008.844 421.085, 1005.037 420.128, 995.750 410.096 C 988.965 402.769, 982.623 393.215, 968.466 369 C 924.745 294.214, 896.596 258.933, 863.500 237.437 C 840.415 222.443, 819.197 216, 792.904 216 C 758.999 216, 725.987 229.860, 699.401 255.256 L 690.235 264.012 684.625 257.069 C 660.142 226.766, 634.710 215.828, 589.372 216.102 C 580.092 216.158, 568.900 216.812, 564.500 217.555 M 1273 221.028 C 1249.699 225.120, 1250.852 259.830, 1274.353 261.779 C 1287.507 262.870, 1297 254.366, 1297 241.490 C 1297 228.318, 1285.811 218.778, 1273 221.028 M 1269.405 226.904 C 1262.414 230.079, 1258.526 239.003, 1260.943 246.326 C 1262.473 250.963, 1268.900 256.703, 1273.537 257.573 C 1281.305 259.030, 1289.793 253.760, 1292.105 246.044 C 1294.320 238.650, 1290.883 230.511, 1284.079 227.040 C 1279.141 224.521, 1274.741 224.480, 1269.405 226.904 M 1268 240.891 L 1268 253 1270.500 253 C 1272.796 253, 1273 252.633, 1273 248.500 C 1273 242.589, 1274.924 242.588, 1278.658 248.498 C 1280.902 252.050, 1282.079 252.997, 1284.252 252.998 L 1287.004 253 1284.054 248.261 C 1281.383 243.969, 1281.264 243.434, 1282.802 242.596 C 1285.260 241.257, 1285.967 239.889, 1285.985 236.441 C 1286.012 230.940, 1284.090 229.594, 1275.598 229.165 L 1268 228.781 1268 240.891 M 1273 236.500 C 1273 238.917, 1273.292 239.097, 1276.750 238.810 C 1279.730 238.564, 1280.500 238.089, 1280.500 236.500 C 1280.500 234.911, 1279.730 234.436, 1276.750 234.190 C 1273.292 233.903, 1273 234.083, 1273 236.500 M 375.500 286.649 C 368.578 287.758, 360.051 290.385, 353.378 293.465 C 326.919 305.676, 305.084 332.884, 297.007 363.710 C 288.526 396.079, 296.297 422.018, 317.729 432.876 C 328.295 438.230, 346.007 439.339, 360.500 435.555 C 369.512 433.202, 383.653 425.833, 391.293 419.508 C 414.819 400.034, 431.328 361.121, 429.692 329 C 428.595 307.465, 420.279 294.852, 403.233 288.868 C 397.514 286.861, 381.951 285.615, 375.500 286.649" stroke="none" fill="#FFBC5E" fill-rule="evenodd"/></svg>