<svg xmlns="http://www.w3.org/2000/svg" xmlns:xlink="http://www.w3.org/1999/xlink" viewBox="0,0,256,256" width="150px" height="150px"><g fill="#ffbc5e" fill-rule="nonzero" stroke="none" stroke-width="1" stroke-linecap="butt" stroke-linejoin="miter" stroke-miterlimit="10" stroke-dasharray="" stroke-dashoffset="0" font-family="none" font-weight="none" font-size="none" text-anchor="none" style="mix-blend-mode: normal"><g transform="scale(5.12,5.12)"><path d="M25,2c-12.69141,0 -23,10.30859 -23,23c0,9.83203 6.18359,18.24609 14.875,21.53125c0.51953,0.1875 1.08984,-0.07812 1.28125,-0.59375l4.96875,-13.09375c0.10156,-0.25391 0.09375,-0.53516 -0.01953,-0.78125c-0.10937,-0.25 -0.31641,-0.44141 -0.57422,-0.53125c-2.64453,-1 -4.53125,-3.52734 -4.53125,-6.53125c0,-3.87891 3.12109,-7 7,-7c3.87891,0 7,3.12109 7,7c0,3.00391 -1.88672,5.53125 -4.53125,6.53125c-0.25781,0.08984 -0.46484,0.28125 -0.57422,0.53125c-0.11328,0.24609 -0.12109,0.52734 -0.01953,0.78125l4.96875,13.09375c0.19141,0.51563 0.76172,0.78125 1.28125,0.59375c8.69141,-3.28516 14.875,-11.69922 14.875,-21.53125c0,-12.69141 -10.30859,-23 -23,-23zM25,4c11.60938,0 21,9.39063 21,21c0,8.62109 -5.26953,15.91797 -12.6875,19.15625l-4.25,-11.21875c2.91016,-1.49219 4.9375,-4.44922 4.9375,-7.9375c0,-4.95703 -4.04297,-9 -9,-9c-4.95703,0 -9,4.04297 -9,9c0,3.48828 2.02734,6.44531 4.9375,7.9375l-4.25,11.21875c-7.41797,-3.23828 -12.6875,-10.53516 -12.6875,-19.15625c0,-11.60937 9.39063,-21 21,-21z"></path></g></g></svg>